HIERARCHY
ROOT root
{
	OFFSET 0.000000 0.000000 0.000000
	CHANNELS 6 Xposition Yposition Zposition Zrotation Yrotation Xrotation
	JOINT lhip
	{
		OFFSET 0.058581 -0.082280 -0.017664
		CHANNELS 3 Zrotation Yrotation Xrotation
		JOINT lknee
		{
			OFFSET 0.043451 -0.386469 0.008037
			CHANNELS 3 Zrotation Yrotation Xrotation
			JOINT lankle
			{
				OFFSET -0.014790 -0.426874 -0.037428
				CHANNELS 3 Zrotation Yrotation Xrotation
				JOINT ltoe
				{
					OFFSET 0.041054 -0.060286 0.122042
					CHANNELS 3 Zrotation Yrotation Xrotation
					End Site
					{
						OFFSET 0.000000 0.000000 0.000000
					}
				}
			}
		}
	}
	JOINT rhip
	{
		OFFSET -0.060310 -0.090513 -0.013543
		CHANNELS 3 Zrotation Yrotation Xrotation
		JOINT rknee
		{
			OFFSET -0.043257 -0.383688 -0.004843
			CHANNELS 3 Zrotation Yrotation Xrotation
			JOINT rankle
			{
				OFFSET 0.019056 -0.420046 -0.034562
				CHANNELS 3 Zrotation Yrotation Xrotation
				JOINT rtoe
				{
					OFFSET -0.034840 -0.062106 0.130323
					CHANNELS 3 Zrotation Yrotation Xrotation
					End Site
					{
						OFFSET 0.000000 0.000000 0.000000
					}
				}
			}
		}
	}
	JOINT lowerback
	{
		OFFSET 0.004439 0.124404 -0.038385
		CHANNELS 3 Zrotation Yrotation Xrotation
		JOINT upperback
		{
			OFFSET 0.004488 0.137956 0.026820
			CHANNELS 3 Zrotation Yrotation Xrotation
			JOINT chest
			{
				OFFSET -0.002265 0.056032 0.002855
				CHANNELS 3 Zrotation Yrotation Xrotation
				JOINT lowerneck
				{
					OFFSET -0.013390 0.211636 -0.033468
					CHANNELS 3 Zrotation Yrotation Xrotation
					JOINT upperneck
					{
						OFFSET 0.010113 0.088937 0.050410
						CHANNELS 3 Zrotation Yrotation Xrotation
						End Site
						{
							OFFSET 0.000000 0.000000 0.000000
						}
					}
				}
				JOINT lclavicle
				{
					OFFSET 0.071702 0.114000 -0.018898
					CHANNELS 3 Zrotation Yrotation Xrotation
					JOINT lshoulder
					{
						OFFSET 0.122921 0.045205 -0.019046
						CHANNELS 3 Zrotation Yrotation Xrotation
						JOINT lelbow
						{
							OFFSET 0.255332 -0.015649 -0.022946
							CHANNELS 3 Zrotation Yrotation Xrotation
							JOINT lwrist
							{
								OFFSET 0.265709 0.012698 -0.007375
								CHANNELS 3 Zrotation Yrotation Xrotation
								End Site
								{
									OFFSET 0.000000 0.000000 0.000000
								}
							}
						}
					}
				}
				JOINT rclavicle
				{
					OFFSET -0.082954 0.112472 -0.023707
					CHANNELS 3 Zrotation Yrotation Xrotation
					JOINT rshoulder
					{
						OFFSET -0.113228 0.046853 -0.008472
						CHANNELS 3 Zrotation Yrotation Xrotation
						JOINT relbow
						{
							OFFSET -0.260127 -0.014369 -0.031269
							CHANNELS 3 Zrotation Yrotation Xrotation
							JOINT rwrist
							{
								OFFSET -0.269108 0.006794 -0.006027
								CHANNELS 3 Zrotation Yrotation Xrotation
								End Site
								{
									OFFSET 0.000000 0.000000 0.000000
								}
							}
						}
					}
				}
			}
		}
	}
}
MOTION
Frames: 13
Frame Time: 0.033333
0.500624 0.195993 0.988545 93.467851 3.189935 99.080198 7.040517 3.634652 -7.860923 3.043768 -0.698197 -6.723982 -3.105220 7.235136 -2.207679 0.000000 -0.000000 0.000000 -1.245499 -2.678716 -8.810417 -2.219566 -2.999863 0.113425 6.250023 -5.264278 -3.634755 0.000000 -0.000000 0.000000 -0.065766 0.789672 -0.764509 2.388847 -1.340536 -7.621303 0.431299 0.173069 -4.002343 3.894624 -9.999802 5.764452 2.851105 -16.808389 1.980820 -22.931933 6.867383 -0.356355 -57.353391 -11.631908 17.653313 -5.202623 -18.023780 35.545925 -10.939038 -8.896223 8.725649 20.770048 -4.643403 -1.901772 56.758751 8.654051 18.049889 -1.000815 16.777761 21.182654 5.492837 2.522112 4.800626 
0.500619 0.196000 0.988513 93.467760 3.187328 99.057553 7.042763 3.642767 -7.831680 3.035032 -0.732069 -6.734687 -3.096675 7.263761 -2.193581 0.000000 -0.000000 0.000000 -1.251946 -2.697426 -8.781609 -2.210567 -2.967878 0.107152 6.293772 -5.280536 -3.641104 0.000000 -0.000000 0.000000 -0.048867 0.782600 -0.679383 2.380343 -1.337521 -7.775145 0.442978 0.171291 -3.909454 3.889911 -10.007486 5.734770 2.828384 -16.777732 2.044587 -22.890404 6.848670 -0.358044 -57.385396 -11.597881 17.623347 -5.190410 -18.032036 35.623413 -10.898300 -8.890665 8.692906 20.770424 -4.590944 -1.868273 56.755874 8.622443 18.001693 -0.996100 16.779822 21.149187 5.411749 2.531928 4.835077 
0.500660 0.196022 0.988463 93.459102 3.189139 99.001873 7.053523 3.662832 -7.761065 3.007839 -0.822428 -6.754163 -3.049704 7.365295 -2.173696 0.000000 -0.000000 0.000000 -1.262710 -2.751808 -8.712187 -2.181707 -2.858032 0.089876 6.423691 -5.330808 -3.662252 0.000000 -0.000000 0.000000 -0.010709 0.767044 -0.427968 2.343538 -1.311849 -8.264374 0.462311 0.168049 -3.647030 3.867669 -9.977845 5.642748 2.700832 -16.638801 2.271835 -22.847054 6.830068 -0.374004 -57.418613 -11.487274 17.526176 -5.165886 -18.108574 35.884416 -10.782322 -8.874405 8.686639 20.894198 -4.458993 -1.744147 56.622642 8.507443 17.831529 -0.990754 16.799115 21.012311 5.155815 2.609065 4.980878 
0.500694 0.195980 0.988463 93.462027 3.183371 98.973588 7.049147 3.646603 -7.728355 3.018649 -0.854338 -6.757404 -3.036469 7.403342 -2.174994 0.000000 -0.000000 0.000000 -1.267893 -2.760651 -8.679189 -2.181490 -2.851243 0.089810 6.480761 -5.328565 -3.680483 0.000000 -0.000000 0.000000 0.003827 0.748868 -0.315267 2.340646 -1.317941 -8.448298 0.474162 0.171071 -3.531549 3.868904 -9.906895 5.558802 2.672871 -16.573608 2.350128 -22.810374 6.841903 -0.406093 -57.458817 -11.468287 17.511044 -5.150359 -18.116336 35.941485 -10.802672 -8.901019 8.656228 20.987194 -4.414804 -1.680314 56.559905 8.470069 17.771918 -0.975963 16.747243 20.939218 5.146596 2.581520 4.944816 
0.500690 0.195937 0.988487 93.467832 3.172736 98.952822 7.025310 3.603702 -7.704701 3.057742 -0.840330 -6.760712 -3.039486 7.435572 -2.155265 0.000000 -0.000000 0.000000 -1.273874 -2.749110 -8.663422 -2.196676 -2.866454 0.109952 6.516524 -5.310368 -3.697867 0.000000 -0.000000 0.000000 -0.006651 0.740858 -0.249560 2.339390 -1.323891 -8.555149 0.465969 0.186965 -3.467979 3.873760 -9.817190 5.462056 2.667175 -16.545410 2.425897 -22.793204 6.858908 -0.443824 -57.468228 -11.457764 17.542490 -5.134083 -18.146847 35.941642 -10.956422 -8.861559 8.633515 21.123036 -4.366826 -1.627923 56.445925 8.473264 17.747345 -0.959347 16.683366 20.838146 5.306875 2.475652 4.792237 
0.500619 0.195864 0.988485 93.462571 3.162073 98.959820 7.002881 3.529150 -7.723306 3.103535 -0.742205 -6.739704 -3.045402 7.404376 -2.135140 0.000000 -0.000000 0.000000 -1.292102 -2.722490 -8.698627 -2.201216 -2.998700 0.160736 6.570739 -5.190756 -3.727327 0.000000 -0.000000 0.000000 -0.013408 0.751131 -0.186369 2.352960 -1.343724 -8.668019 0.428668 0.226143 -3.448536 3.858063 -9.772902 5.428773 2.748226 -16.539743 2.454971 -22.694029 6.890142 -0.502049 -57.564065 -11.441945 17.710072 -5.092654 -18.159683 35.878043 -11.141127 -8.806328 8.685135 21.217273 -4.309000 -1.599091 56.358629 8.467564 17.813758 -0.768918 16.510989 20.723478 5.695704 2.290654 4.198730 
0.500605 0.195746 0.988545 93.440610 3.126353 98.943889 6.967360 3.428770 -7.660930 3.112427 -0.585724 -6.809987 -3.029638 7.352524 -2.134678 0.000000 -0.000000 0.000000 -1.353439 -2.662025 -8.702525 -2.192967 -3.197243 0.207122 6.628358 -5.014224 -3.812959 0.000000 -0.000000 0.000000 -0.066665 0.751116 -0.157136 2.395239 -1.363353 -8.661612 0.390850 0.210299 -3.506510 3.873242 -9.776199 5.372123 2.770687 -16.555121 2.516266 -22.587340 6.973295 -0.594729 -57.675925 -11.389073 18.004914 -4.977190 -18.225973 35.642295 -11.333989 -8.727984 8.741571 21.287208 -4.190772 -1.619082 56.252848 8.556240 18.068923 -0.412025 16.141849 20.479134 6.184107 1.921505 3.222350 
0.500605 0.195551 0.988641 93.389245 3.099312 98.935719 6.912146 3.288814 -7.621573 3.173759 -0.425628 -6.841731 -2.961689 7.297065 -2.177546 0.000000 -0.000000 0.000000 -1.415724 -2.605302 -8.706800 -2.178266 -3.410091 0.219571 6.675720 -4.743980 -3.907526 0.000000 -0.000000 0.000000 -0.138910 0.772010 -0.128255 2.458692 -1.374460 -8.615530 0.369560 0.170455 -3.651199 3.882811 -9.715183 5.316645 2.756751 -16.556876 2.651069 -22.544518 7.038822 -0.690573 -57.739790 -11.324644 18.334092 -4.785506 -18.274428 35.103545 -11.665981 -8.615979 8.769251 21.416399 -4.008457 -1.615741 56.005501 8.664128 18.435321 0.042579 15.659645 20.345441 6.911318 1.528842 2.305275 
0.500681 0.195391 0.988584 93.344518 3.071914 98.894787 6.862541 3.184726 -7.538550 3.235154 -0.309407 -6.893799 -2.908510 7.247040 -2.219857 0.000000 -0.000000 0.000000 -1.466215 -2.597406 -8.680601 -2.159014 -3.578224 0.235891 6.688508 -4.527410 -3.964920 0.000000 -0.000000 0.000000 -0.213311 0.817370 -0.107699 2.499361 -1.380574 -8.518053 0.355859 0.151754 -3.784346 3.852272 -9.700849 5.240303 2.765979 -16.644901 2.774502 -22.531155 7.008421 -0.716201 -57.740552 -11.269961 18.594782 -4.642503 -18.368483 34.726163 -11.906254 -8.523562 8.852750 21.577865 -3.783988 -1.592711 55.778446 8.694476 18.712731 0.379565 15.224386 20.449396 7.720766 1.183961 1.715416 
0.500695 0.195263 0.988542 93.299518 3.048952 98.878313 6.857213 3.127824 -7.499406 3.201862 -0.160819 -6.918088 -2.877077 7.205099 -2.215709 0.000000 -0.000000 0.000000 -1.508258 -2.575885 -8.677361 -2.144085 -3.674948 0.245990 6.704501 -4.359483 -4.017069 0.000000 -0.000000 0.000000 -0.271944 0.836854 -0.073038 2.527604 -1.368211 -8.487409 0.353336 0.170488 -3.859506 3.832937 -9.610755 5.157333 2.760123 -16.673442 2.862583 -22.524119 7.036195 -0.777141 -57.745947 -11.222344 18.773008 -4.597409 -18.478186 34.500474 -12.129442 -8.420511 8.942908 21.716334 -3.668213 -1.566770 55.631817 8.714024 18.941272 0.644471 14.881703 20.699023 8.329609 0.925141 1.537906 
0.500824 0.195082 0.988475 93.260146 3.062133 98.847598 6.902576 3.071185 -7.446319 3.159500 -0.096815 -6.930090 -2.844422 7.189872 -2.274220 0.000000 -0.000000 0.000000 -1.497429 -2.594995 -8.642402 -2.133887 -3.741443 0.226453 6.719198 -4.230339 -4.044327 0.000000 -0.000000 0.000000 -0.276438 0.864100 -0.061006 2.554905 -1.362118 -8.468482 0.323442 0.190614 -3.876481 3.815983 -9.530972 5.059547 2.768382 -16.738772 2.929476 -22.555611 7.136012 -0.823717 -57.642577 -11.148639 18.863863 -4.645676 -18.798887 34.300196 -12.281710 -8.281383 8.861340 21.977669 -3.590501 -1.497713 55.405232 8.728052 19.105680 0.839876 14.636081 20.959898 8.789322 0.641851 1.579471 
0.500932 0.194938 0.988406 93.249878 3.072821 98.821862 6.895229 3.028888 -7.365751 3.222962 -0.114115 -7.022742 -2.851900 7.208584 -2.257956 0.000000 -0.000000 0.000000 -1.475035 -2.597698 -8.610776 -2.140052 -3.760259 0.210626 6.700833 -4.194630 -4.054952 0.000000 -0.000000 0.000000 -0.266352 0.831043 -0.049385 2.556841 -1.361781 -8.458616 0.317733 0.199316 -3.856033 3.788937 -9.410801 4.995550 2.751143 -16.760293 2.945671 -22.496911 7.272577 -0.825100 -57.694867 -11.043565 18.899471 -4.617388 -19.072629 34.244600 -12.178138 -8.330718 8.725366 22.171445 -3.530535 -1.358472 55.290096 8.724788 19.177417 0.981718 14.497135 21.063234 8.667404 0.668511 1.682357 
0.501131 0.194845 0.988309 93.258232 3.088851 98.803147 6.929310 2.957944 -7.319872 3.211577 -0.081681 -7.036840 -2.825275 7.226258 -2.282069 0.000000 -0.000000 0.000000 -1.458124 -2.641153 -8.567450 -2.115895 -3.762494 0.178159 6.696349 -4.168044 -4.097013 0.000000 -0.000000 0.000000 -0.250127 0.848822 -0.130089 2.564101 -1.382293 -8.393574 0.304206 0.207328 -3.784117 3.788665 -9.286651 4.944423 2.751592 -16.776146 2.952237 -22.444778 7.365688 -0.807462 -57.711255 -10.944945 18.898529 -4.666053 -19.343147 34.107689 -12.126274 -8.366743 8.505486 22.319099 -3.514983 -1.136491 55.257895 8.678081 19.162451 0.990942 14.556696 20.971610 8.536069 0.673434 1.711479 
